<svg width="33" height="33" viewBox="0 0 33 33" fill="none" xmlns="http://www.w3.org/2000/svg">
<path d="M26.0261 6.60985C25.1316 6.66097 24.2344 6.58919 23.3594 6.39652C22.304 6.03512 21.3169 5.49875 20.4394 4.80985C19.6888 4.27771 18.9759 3.69408 18.3061 3.06319C18.0221 2.79793 17.648 2.65039 17.2594 2.65039C16.8708 2.65039 16.4967 2.79793 16.2128 3.06319C15.5607 3.67413 14.8752 4.24835 14.1594 4.78319C13.2765 5.48114 12.2857 6.03057 11.2261 6.40985C10.2295 6.63504 9.2057 6.71586 8.1861 6.64985C7.35124 6.61528 6.51889 6.53516 5.69276 6.40985C5.49089 6.37993 5.28506 6.39096 5.08754 6.44229C4.89002 6.49362 4.70487 6.5842 4.54311 6.70863C4.38135 6.83306 4.24631 6.98879 4.14603 7.16653C4.04575 7.34428 3.98229 7.54039 3.95943 7.74319C3.89276 8.38319 3.71943 10.0499 3.63943 11.9032C3.52732 13.7549 3.64375 15.6133 3.9861 17.4365C4.95149 20.4571 6.72703 23.155 9.11943 25.2365C11.021 27.0302 13.083 28.6458 15.2794 30.0632C15.8681 30.4674 16.5654 30.6837 17.2794 30.6837C17.9935 30.6837 18.6908 30.4674 19.2794 30.0632C21.3594 28.6089 23.305 26.9712 25.0928 25.1698C27.3451 23.0731 29.0131 20.4264 29.9328 17.4899" stroke="#1A202C" stroke-width="2.5" stroke-linecap="round" stroke-linejoin="round"/>
<path d="M15.6396 15.3171L19.453 19.1304C19.4767 19.1563 19.5056 19.1769 19.5377 19.191C19.5698 19.2052 19.6045 19.2125 19.6396 19.2125C19.6748 19.2125 19.7095 19.2052 19.7416 19.191C19.7737 19.1769 19.8026 19.1563 19.8263 19.1304L30.3063 8.65039" stroke="#3563E9" stroke-width="2.5" stroke-linecap="round" stroke-linejoin="round"/>
</svg>
