<svg width="41" height="41" viewBox="0 0 41 41" fill="none" xmlns="http://www.w3.org/2000/svg">
<path d="M20.9727 0.507812C15.6689 0.507812 10.5819 2.61539 6.83096 6.36611C3.08028 10.1168 0.972656 15.2041 0.972656 20.5078C0.972656 25.8115 3.08023 30.8986 6.83096 34.6495C10.5816 38.4002 15.6689 40.5078 20.9727 40.5078C26.2764 40.5078 31.3634 38.4002 35.1144 34.6495C38.8669 30.8988 40.9727 25.8115 40.9727 20.5078C40.9671 15.206 38.8577 10.1222 35.1087 6.37175C31.358 2.62291 26.2745 0.513452 20.9727 0.507812ZM32.3311 34.1574V32.048C32.333 30.1553 31.8612 28.29 30.9579 26.6249H30.9542L30.8257 26.401C29.7223 24.488 28.0885 22.9349 26.1222 21.9288C26.0983 21.9178 26.0763 21.9031 26.0542 21.8921C25.7752 21.7526 25.4906 21.6241 25.2006 21.5066L24.4075 21.1871L25.1216 20.7153C26.2745 19.9571 27.198 18.896 27.7909 17.6494C28.3839 16.4048 28.6226 15.0186 28.4849 13.6455C28.4611 13.405 28.4243 13.1663 28.3766 12.9313C28.3656 12.8781 28.3509 12.8248 28.3399 12.7716C28.2977 12.5807 28.2499 12.3916 28.193 12.2062C28.1802 12.1658 28.1673 12.1272 28.1545 12.0868C28.0829 11.872 28.0058 11.6572 27.914 11.4479L27.9085 11.4351L27.9066 11.4333C27.8057 11.1983 27.69 10.9688 27.5652 10.7448L27.4256 10.497V10.4952C26.2195 8.50324 24.1596 7.17959 21.8446 6.91156C21.5527 6.87851 21.2571 6.86199 20.9634 6.86199C19.1092 6.85648 17.3192 7.54125 15.9421 8.78411C14.1944 10.3446 13.271 12.6302 13.4435 14.9672C13.6179 17.3042 14.8663 19.4283 16.8252 20.715L17.5393 21.185L16.7462 21.5044C14.6368 22.3435 12.8285 23.7974 11.5562 25.6774C10.284 27.5591 9.60657 29.7787 9.6139 32.0479V34.1573C5.8449 31.0235 3.53894 26.4722 3.24003 21.5816C2.93895 16.691 4.67385 11.892 8.03148 8.32301C11.3892 4.75224 16.0724 2.72931 20.9724 2.72931C25.8724 2.72931 30.5557 4.75243 33.9133 8.32301C37.271 11.8919 39.006 16.691 38.7066 21.5816C38.4055 26.4722 36.0999 31.0236 32.3311 34.1574Z" fill="#F6F6F6"/>
</svg>
