<svg width="52" height="63" viewBox="0 0 52 63" fill="none" xmlns="http://www.w3.org/2000/svg">
<path d="M49.3681 5.22604C48.7432 4.6011 47.8058 4.28864 46.8684 4.60111C39.9941 6.16345 33.1198 4.6011 27.4953 0.539015C26.5579 -0.0859217 24.9956 -0.0859217 24.0582 0.539015C18.1213 4.6011 11.247 6.16345 4.37267 4.60111C2.81033 4.28864 0.935515 5.53851 0.623047 7.10085C0.623047 7.41332 0.623047 7.41332 0.623047 7.72579V31.1609C0.623047 40.2225 4.9976 48.6592 12.4968 53.9711L24.0582 62.0953C24.9956 62.7202 26.5579 62.7202 27.8078 62.0953L39.3691 53.9711C46.8684 48.6592 51.2429 40.2225 51.2429 31.1609V7.72579C50.618 6.78838 50.3055 5.85098 49.3681 5.22604ZM31.8699 34.5981H28.7452V37.7228C28.7452 39.5976 27.4953 40.8474 25.6205 40.8474C23.7457 40.8474 22.4958 39.5976 22.4958 37.7228V34.5981H19.3712C17.4963 34.5981 16.2465 33.3482 16.2465 31.4734C16.2465 29.5986 17.4963 28.3487 19.3712 28.3487H22.4958V25.224C22.4958 23.3492 23.7457 22.0993 25.6205 22.0993C27.4953 22.0993 28.7452 23.3492 28.7452 25.224V28.3487H31.8699C33.7447 28.3487 34.9946 29.5986 34.9946 31.4734C34.9946 33.3482 33.7447 34.5981 31.8699 34.5981Z" fill="#03B74B"/>
</svg>
