<svg width="63" height="63" viewBox="0 0 63 63" fill="none" xmlns="http://www.w3.org/2000/svg">
<path d="M44.0337 15.85H12.7868C10.912 15.85 9.66214 17.0999 9.66214 18.9747V26.7864H33.0973C34.9721 26.7864 36.222 28.0363 36.222 29.9111V53.3462H44.0337C45.9085 53.3462 47.1584 52.0963 47.1584 50.2215V18.9747C47.1584 17.0999 45.9085 15.85 44.0337 15.85ZM28.4102 31.4734H3.41277C1.53796 31.4734 0.288086 32.7233 0.288086 34.5981V59.5956C0.288086 61.4704 1.53796 62.7203 3.41277 62.7203H28.4102C30.2851 62.7203 31.5349 61.4704 31.5349 59.5956V34.5981C31.5349 32.7233 30.2851 31.4734 28.4102 31.4734ZM59.6571 0.226562H22.1609C20.2861 0.226562 19.0362 1.47644 19.0362 3.35125V11.163H48.7207C50.5955 11.163 51.8454 12.4128 51.8454 14.2876V43.9721H59.6571C61.5319 43.9721 62.7818 42.7223 62.7818 40.8475V3.35125C62.7818 1.47644 61.5319 0.226562 59.6571 0.226562Z" fill="#03B74B"/>
</svg>
