<svg width="30" height="30" viewBox="0 0 30 30" fill="none" xmlns="http://www.w3.org/2000/svg">
<path d="M11.0665 2.57031C7.86826 2.57031 5.26819 5.17038 5.26819 8.36859C5.26819 11.5058 7.72178 14.0448 10.92 14.1547C11.0176 14.1425 11.1153 14.1425 11.1885 14.1547C11.2129 14.1547 11.2252 14.1547 11.2496 14.1547C11.2618 14.1547 11.2618 14.1547 11.274 14.1547C14.3989 14.0448 16.8525 11.5058 16.8647 8.36859C16.8647 5.17038 14.2647 2.57031 11.0665 2.57031Z" fill="#90A3BF"/>
<path d="M17.2674 17.4021C13.8617 15.1316 8.30755 15.1316 4.87741 17.4021C3.32714 18.4397 2.47266 19.8435 2.47266 21.3449C2.47266 22.8464 3.32714 24.2379 4.86521 25.2633C6.57417 26.4108 8.82024 26.9845 11.0663 26.9845C13.3124 26.9845 15.5584 26.4108 17.2674 25.2633C18.8055 24.2257 19.66 22.8342 19.66 21.3205C19.6478 19.819 18.8055 18.4275 17.2674 17.4021Z" fill="#90A3BF"/>
<path d="M24.4817 9.08816C24.677 11.4563 22.9925 13.5315 20.661 13.8122C20.6488 13.8122 20.6488 13.8122 20.6366 13.8122H20.5999C20.5267 13.8122 20.4535 13.8122 20.3924 13.8366C19.2084 13.8977 18.1219 13.5193 17.3041 12.8235C18.5614 11.7004 19.2816 10.0159 19.1351 8.18485C19.0497 7.19609 18.7079 6.29278 18.1952 5.52375C18.659 5.29182 19.1961 5.14534 19.7455 5.09651C22.138 4.88899 24.2742 6.6712 24.4817 9.08816Z" fill="#90A3BF"/>
<path d="M26.9231 20.3798C26.8255 21.5639 26.0686 22.5893 24.7991 23.2851C23.5784 23.9564 22.0404 24.2738 20.5145 24.2372C21.3934 23.4438 21.9061 22.455 22.0037 21.4052C22.1258 19.8915 21.4056 18.4389 19.9652 17.2793C19.1473 16.6323 18.1952 16.1196 17.1576 15.7412C19.8553 14.96 23.2488 15.4849 25.3362 17.1694C26.4592 18.0727 27.033 19.208 26.9231 20.3798Z" fill="#90A3BF"/>
</svg>
