<svg width="31" height="30" viewBox="0 0 31 30" fill="none" xmlns="http://www.w3.org/2000/svg">
<path d="M15.4374 2.57031C8.69916 2.57031 3.23047 8.039 3.23047 14.7772C3.23047 21.5154 8.69916 26.9841 15.4374 26.9841C22.1756 26.9841 27.6443 21.5154 27.6443 14.7772C27.6443 8.039 22.1878 2.57031 15.4374 2.57031Z" fill="#90A3BF"/>
<rect x="5.6731" y="5.01172" width="19.531" height="19.531" rx="9.76552" fill="white"/>
<path d="M15.4382 7.45312C11.3952 7.45312 8.11401 10.7343 8.11401 14.7773C8.11401 18.8202 11.3952 22.1014 15.4382 22.1014C19.4811 22.1014 22.7623 18.8202 22.7623 14.7773C22.7623 10.7343 19.4884 7.45312 15.4382 7.45312Z" fill="#90A3BF"/>
<rect x="10.5549" y="9.89453" width="9.76552" height="9.76552" rx="4.88276" fill="white"/>
<rect x="14.2179" y="20.8809" width="2.44138" height="4.88276" fill="#90A3BF"/>
<rect x="21.5414" y="13.5566" width="4.88276" height="2.44138" fill="#90A3BF"/>
<rect x="4.45093" y="13.5566" width="4.88276" height="2.44138" fill="#90A3BF"/>
</svg>
