<svg xmlns="http://www.w3.org/2000/svg" fill="none" viewBox="80.91 0 716.88 92.08749999999999" style="max-height: 500px" width="716.88" height="92.08749999999999">
<g filter="url(#filter0_dddd_339_56212)">
<path fill-opacity="0.86" fill="#F0EFEF" d="M598.759 2.85096e-05C598.759 2.85096e-05 20.4473 -4.12648e-05 58.416 3.74988e-05C99.95 0.000123658 113.854 22.8592 126.886 44.2862C138.382 63.1868 149.201 80.9732 177.707 80.9732L273.032 80.9732L598.759 80.9732L694.084 80.9732C722.59 80.9732 733.408 63.1868 744.904 44.2862C757.937 22.8592 771.841 0.000123597 813.375 3.7437e-05L598.759 2.85096e-05Z" clip-rule="evenodd" fill-rule="evenodd"/>
<path fill="#1D1D1D" d="M198.72 46.4617L198.72 56.8867L197.01 56.8867L197.01 52.3267L192.105 52.3267L192.105 56.8867L190.395 56.8867L190.395 46.4617L192.105 46.4617L192.105 50.9317L197.01 50.9317L197.01 46.4617L198.72 46.4617ZM204.631 57.0217C203.851 57.0217 203.146 56.8467 202.516 56.4967C201.886 56.1367 201.391 55.6367 201.031 54.9967C200.671 54.3467 200.491 53.5967 200.491 52.7467C200.491 51.9067 200.676 51.1617 201.046 50.5117C201.416 49.8617 201.921 49.3617 202.561 49.0117C203.201 48.6617 203.916 48.4867 204.706 48.4867C205.496 48.4867 206.211 48.6617 206.851 49.0117C207.491 49.3617 207.996 49.8617 208.366 50.5117C208.736 51.1617 208.921 51.9067 208.921 52.7467C208.921 53.5867 208.731 54.3317 208.351 54.9817C207.971 55.6317 207.451 56.1367 206.791 56.4967C206.141 56.8467 205.421 57.0217 204.631 57.0217ZM204.631 55.5367C205.071 55.5367 205.481 55.4317 205.861 55.2217C206.251 55.0117 206.566 54.6967 206.806 54.2767C207.046 53.8567 207.166 53.3467 207.166 52.7467C207.166 52.1467 207.051 51.6417 206.821 51.2317C206.591 50.8117 206.286 50.4967 205.906 50.2867C205.526 50.0767 205.116 49.9717 204.676 49.9717C204.236 49.9717 203.826 50.0767 203.446 50.2867C203.076 50.4967 202.781 50.8117 202.561 51.2317C202.341 51.6417 202.231 52.1467 202.231 52.7467C202.231 53.6367 202.456 54.3267 202.906 54.8167C203.366 55.2967 203.941 55.5367 204.631 55.5367ZM220.691 48.4867C221.341 48.4867 221.921 48.6217 222.431 48.8917C222.951 49.1617 223.356 49.5617 223.646 50.0917C223.946 50.6217 224.096 51.2617 224.096 52.0117L224.096 56.8867L222.401 56.8867L222.401 52.2667C222.401 51.5267 222.216 50.9617 221.846 50.5717C221.476 50.1717 220.971 49.9717 220.331 49.9717C219.691 49.9717 219.181 50.1717 218.801 50.5717C218.431 50.9617 218.246 51.5267 218.246 52.2667L218.246 56.8867L216.551 56.8867L216.551 52.2667C216.551 51.5267 216.366 50.9617 215.996 50.5717C215.626 50.1717 215.121 49.9717 214.481 49.9717C213.841 49.9717 213.331 50.1717 212.951 50.5717C212.581 50.9617 212.396 51.5267 212.396 52.2667L212.396 56.8867L210.686 56.8867L210.686 48.6217L212.396 48.6217L212.396 49.5667C212.676 49.2267 213.031 48.9617 213.461 48.7717C213.891 48.5817 214.351 48.4867 214.841 48.4867C215.501 48.4867 216.091 48.6267 216.611 48.9067C217.131 49.1867 217.531 49.5917 217.811 50.1217C218.061 49.6217 218.451 49.2267 218.981 48.9367C219.511 48.6367 220.081 48.4867 220.691 48.4867ZM233.922 52.5517C233.922 52.8617 233.902 53.1417 233.862 53.3917L227.547 53.3917C227.597 54.0517 227.842 54.5817 228.282 54.9817C228.722 55.3817 229.262 55.5817 229.902 55.5817C230.822 55.5817 231.472 55.1967 231.852 54.4267L233.697 54.4267C233.447 55.1867 232.992 55.8117 232.332 56.3017C231.682 56.7817 230.872 57.0217 229.902 57.0217C229.112 57.0217 228.402 56.8467 227.772 56.4967C227.152 56.1367 226.662 55.6367 226.302 54.9967C225.952 54.3467 225.777 53.5967 225.777 52.7467C225.777 51.8967 225.947 51.1517 226.287 50.5117C226.637 49.8617 227.122 49.3617 227.742 49.0117C228.372 48.6617 229.092 48.4867 229.902 48.4867C230.682 48.4867 231.377 48.6567 231.987 48.9967C232.597 49.3367 233.072 49.8167 233.412 50.4367C233.752 51.0467 233.922 51.7517 233.922 52.5517ZM232.137 52.0117C232.127 51.3817 231.902 50.8767 231.462 50.4967C231.022 50.1167 230.477 49.9267 229.827 49.9267C229.237 49.9267 228.732 50.1167 228.312 50.4967C227.892 50.8667 227.642 51.3717 227.562 52.0117L232.137 52.0117Z"/>
<path fill="#1D1D1D" d="M306.824 46.4617L306.824 47.8567L304.049 47.8567L304.049 56.8867L302.339 56.8867L302.339 47.8567L299.549 47.8567L299.549 46.4617L306.824 46.4617ZM312.216 57.0217C311.436 57.0217 310.731 56.8467 310.101 56.4967C309.471 56.1367 308.976 55.6367 308.616 54.9967C308.256 54.3467 308.076 53.5967 308.076 52.7467C308.076 51.9067 308.261 51.1617 308.631 50.5117C309.001 49.8617 309.506 49.3617 310.146 49.0117C310.786 48.6617 311.501 48.4867 312.291 48.4867C313.081 48.4867 313.796 48.6617 314.436 49.0117C315.076 49.3617 315.581 49.8617 315.951 50.5117C316.321 51.1617 316.506 51.9067 316.506 52.7467C316.506 53.5867 316.316 54.3317 315.936 54.9817C315.556 55.6317 315.036 56.1367 314.376 56.4967C313.726 56.8467 313.006 57.0217 312.216 57.0217ZM312.216 55.5367C312.656 55.5367 313.066 55.4317 313.446 55.2217C313.836 55.0117 314.151 54.6967 314.391 54.2767C314.631 53.8567 314.751 53.3467 314.751 52.7467C314.751 52.1467 314.636 51.6417 314.406 51.2317C314.176 50.8117 313.871 50.4967 313.491 50.2867C313.111 50.0767 312.701 49.9717 312.261 49.9717C311.821 49.9717 311.411 50.0767 311.031 50.2867C310.661 50.4967 310.366 50.8117 310.146 51.2317C309.926 51.6417 309.816 52.1467 309.816 52.7467C309.816 53.6367 310.041 54.3267 310.491 54.8167C310.951 55.2967 311.526 55.5367 312.216 55.5367ZM319.981 49.8367C320.271 49.4567 320.666 49.1367 321.166 48.8767C321.666 48.6167 322.231 48.4867 322.861 48.4867C323.581 48.4867 324.236 48.6667 324.826 49.0267C325.426 49.3767 325.896 49.8717 326.236 50.5117C326.576 51.1517 326.746 51.8867 326.746 52.7167C326.746 53.5467 326.576 54.2917 326.236 54.9517C325.896 55.6017 325.426 56.1117 324.826 56.4817C324.236 56.8417 323.581 57.0217 322.861 57.0217C322.231 57.0217 321.671 56.8967 321.181 56.6467C320.691 56.3867 320.291 56.0667 319.981 55.6867L319.981 60.8167L318.271 60.8167L318.271 48.6217L319.981 48.6217L319.981 49.8367ZM325.006 52.7167C325.006 52.1467 324.886 51.6567 324.646 51.2467C324.416 50.8267 324.106 50.5117 323.716 50.3017C323.336 50.0817 322.926 49.9717 322.486 49.9717C322.056 49.9717 321.646 50.0817 321.256 50.3017C320.876 50.5217 320.566 50.8417 320.326 51.2617C320.096 51.6817 319.981 52.1767 319.981 52.7467C319.981 53.3167 320.096 53.8167 320.326 54.2467C320.566 54.6667 320.876 54.9867 321.256 55.2067C321.646 55.4267 322.056 55.5367 322.486 55.5367C322.926 55.5367 323.336 55.4267 323.716 55.2067C324.106 54.9767 324.416 54.6467 324.646 54.2167C324.886 53.7867 325.006 53.2867 325.006 52.7167ZM334.194 49.8367C334.484 49.4567 334.879 49.1367 335.379 48.8767C335.879 48.6167 336.444 48.4867 337.074 48.4867C337.794 48.4867 338.449 48.6667 339.039 49.0267C339.639 49.3767 340.109 49.8717 340.449 50.5117C340.789 51.1517 340.959 51.8867 340.959 52.7167C340.959 53.5467 340.789 54.2917 340.449 54.9517C340.109 55.6017 339.639 56.1117 339.039 56.4817C338.449 56.8417 337.794 57.0217 337.074 57.0217C336.444 57.0217 335.884 56.8967 335.394 56.6467C334.904 56.3867 334.504 56.0667 334.194 55.6867L334.194 60.8167L332.484 60.8167L332.484 48.6217L334.194 48.6217L334.194 49.8367ZM339.219 52.7167C339.219 52.1467 339.099 51.6567 338.859 51.2467C338.629 50.8267 338.319 50.5117 337.929 50.3017C337.549 50.0817 337.139 49.9717 336.699 49.9717C336.269 49.9717 335.859 50.0817 335.469 50.3017C335.089 50.5217 334.779 50.8417 334.539 51.2617C334.309 51.6817 334.194 52.1767 334.194 52.7467C334.194 53.3167 334.309 53.8167 334.539 54.2467C334.779 54.6667 335.089 54.9867 335.469 55.2067C335.859 55.4267 336.269 55.5367 336.699 55.5367C337.139 55.5367 337.549 55.4267 337.929 55.2067C338.319 54.9767 338.629 54.6467 338.859 54.2167C339.099 53.7867 339.219 53.2867 339.219 52.7167ZM344.435 45.7867L344.435 56.8867L342.725 56.8867L342.725 45.7867L344.435 45.7867ZM346.185 52.7167C346.185 51.8867 346.355 51.1517 346.695 50.5117C347.045 49.8717 347.515 49.3767 348.105 49.0267C348.705 48.6667 349.365 48.4867 350.085 48.4867C350.735 48.4867 351.3 48.6167 351.78 48.8767C352.27 49.1267 352.66 49.4417 352.95 49.8217L352.95 48.6217L354.675 48.6217L354.675 56.8867L352.95 56.8867L352.95 55.6567C352.66 56.0467 352.265 56.3717 351.765 56.6317C351.265 56.8917 350.695 57.0217 350.055 57.0217C349.345 57.0217 348.695 56.8417 348.105 56.4817C347.515 56.1117 347.045 55.6017 346.695 54.9517C346.355 54.2917 346.185 53.5467 346.185 52.7167ZM352.95 52.7467C352.95 52.1767 352.83 51.6817 352.59 51.2617C352.36 50.8417 352.055 50.5217 351.675 50.3017C351.295 50.0817 350.885 49.9717 350.445 49.9717C350.005 49.9717 349.595 50.0817 349.215 50.3017C348.835 50.5117 348.525 50.8267 348.285 51.2467C348.055 51.6567 347.94 52.1467 347.94 52.7167C347.94 53.2867 348.055 53.7867 348.285 54.2167C348.525 54.6467 348.835 54.9767 349.215 55.2067C349.605 55.4267 350.015 55.5367 350.445 55.5367C350.885 55.5367 351.295 55.4267 351.675 55.2067C352.055 54.9867 352.36 54.6667 352.59 54.2467C352.83 53.8167 352.95 53.3167 352.95 52.7467ZM356.426 52.7467C356.426 51.8967 356.596 51.1517 356.936 50.5117C357.286 49.8617 357.766 49.3617 358.376 49.0117C358.986 48.6617 359.686 48.4867 360.476 48.4867C361.476 48.4867 362.301 48.7267 362.951 49.2067C363.611 49.6767 364.056 50.3517 364.286 51.2317L362.441 51.2317C362.291 50.8217 362.051 50.5017 361.721 50.2717C361.391 50.0417 360.976 49.9267 360.476 49.9267C359.776 49.9267 359.216 50.1767 358.796 50.6767C358.386 51.1667 358.181 51.8567 358.181 52.7467C358.181 53.6367 358.386 54.3317 358.796 54.8317C359.216 55.3317 359.776 55.5817 360.476 55.5817C361.466 55.5817 362.121 55.1467 362.441 54.2767L364.286 54.2767C364.046 55.1167 363.596 55.7867 362.936 56.2867C362.276 56.7767 361.456 57.0217 360.476 57.0217C359.686 57.0217 358.986 56.8467 358.376 56.4967C357.766 56.1367 357.286 55.6367 356.936 54.9967C356.596 54.3467 356.426 53.5967 356.426 52.7467ZM373.64 52.5517C373.64 52.8617 373.62 53.1417 373.58 53.3917L367.265 53.3917C367.315 54.0517 367.56 54.5817 368 54.9817C368.44 55.3817 368.98 55.5817 369.62 55.5817C370.54 55.5817 371.19 55.1967 371.57 54.4267L373.415 54.4267C373.165 55.1867 372.71 55.8117 372.05 56.3017C371.4 56.7817 370.59 57.0217 369.62 57.0217C368.83 57.0217 368.12 56.8467 367.49 56.4967C366.87 56.1367 366.38 55.6367 366.02 54.9967C365.67 54.3467 365.495 53.5967 365.495 52.7467C365.495 51.8967 365.665 51.1517 366.005 50.5117C366.355 49.8617 366.84 49.3617 367.46 49.0117C368.09 48.6617 368.81 48.4867 369.62 48.4867C370.4 48.4867 371.095 48.6567 371.705 48.9967C372.315 49.3367 372.79 49.8167 373.13 50.4367C373.47 51.0467 373.64 51.7517 373.64 52.5517ZM371.855 52.0117C371.845 51.3817 371.62 50.8767 371.18 50.4967C370.74 50.1167 370.195 49.9267 369.545 49.9267C368.955 49.9267 368.45 50.1167 368.03 50.4967C367.61 50.8667 367.36 51.3717 367.28 52.0117L371.855 52.0117ZM378.398 57.0217C377.748 57.0217 377.163 56.9067 376.643 56.6767C376.133 56.4367 375.728 56.1167 375.428 55.7167C375.128 55.3067 374.968 54.8517 374.948 54.3517L376.718 54.3517C376.748 54.7017 376.913 54.9967 377.213 55.2367C377.523 55.4667 377.908 55.5817 378.368 55.5817C378.848 55.5817 379.218 55.4917 379.478 55.3117C379.748 55.1217 379.883 54.8817 379.883 54.5917C379.883 54.2817 379.733 54.0517 379.433 53.9017C379.143 53.7517 378.678 53.5867 378.038 53.4067C377.418 53.2367 376.913 53.0717 376.523 52.9117C376.133 52.7517 375.793 52.5067 375.503 52.1767C375.223 51.8467 375.083 51.4117 375.083 50.8717C375.083 50.4317 375.213 50.0317 375.473 49.6717C375.733 49.3017 376.103 49.0117 376.583 48.8017C377.073 48.5917 377.633 48.4867 378.263 48.4867C379.203 48.4867 379.958 48.7267 380.528 49.2067C381.108 49.6767 381.418 50.3217 381.458 51.1417L379.748 51.1417C379.718 50.7717 379.568 50.4767 379.298 50.2567C379.028 50.0367 378.663 49.9267 378.203 49.9267C377.753 49.9267 377.408 50.0117 377.168 50.1817C376.928 50.3517 376.808 50.5767 376.808 50.8567C376.808 51.0767 376.888 51.2617 377.048 51.4117C377.208 51.5617 377.403 51.6817 377.633 51.7717C377.863 51.8517 378.203 51.9567 378.653 52.0867C379.253 52.2467 379.743 52.4117 380.123 52.5817C380.513 52.7417 380.848 52.9817 381.128 53.3017C381.408 53.6217 381.553 54.0467 381.563 54.5767C381.563 55.0467 381.433 55.4667 381.173 55.8367C380.913 56.2067 380.543 56.4967 380.063 56.7067C379.593 56.9167 379.038 57.0217 378.398 57.0217Z"/>
<path fill="#1D1D1D" d="M449.487 46.4617L449.487 56.8867L447.777 56.8867L447.777 46.4617L449.487 46.4617ZM455.977 48.4867C456.627 48.4867 457.207 48.6217 457.717 48.8917C458.237 49.1617 458.642 49.5617 458.932 50.0917C459.222 50.6217 459.367 51.2617 459.367 52.0117L459.367 56.8867L457.672 56.8867L457.672 52.2667C457.672 51.5267 457.487 50.9617 457.117 50.5717C456.747 50.1717 456.242 49.9717 455.602 49.9717C454.962 49.9717 454.452 50.1717 454.072 50.5717C453.702 50.9617 453.517 51.5267 453.517 52.2667L453.517 56.8867L451.807 56.8867L451.807 48.6217L453.517 48.6217L453.517 49.5667C453.797 49.2267 454.152 48.9617 454.582 48.7717C455.022 48.5817 455.487 48.4867 455.977 48.4867ZM464.818 55.3567L467.158 48.6217L468.973 48.6217L465.823 56.8867L463.783 56.8867L460.648 48.6217L462.478 48.6217L464.818 55.3567ZM477.916 52.5517C477.916 52.8617 477.896 53.1417 477.856 53.3917L471.541 53.3917C471.591 54.0517 471.836 54.5817 472.276 54.9817C472.716 55.3817 473.256 55.5817 473.896 55.5817C474.816 55.5817 475.466 55.1967 475.846 54.4267L477.691 54.4267C477.441 55.1867 476.986 55.8117 476.326 56.3017C475.676 56.7817 474.866 57.0217 473.896 57.0217C473.106 57.0217 472.396 56.8467 471.766 56.4967C471.146 56.1367 470.656 55.6367 470.296 54.9967C469.946 54.3467 469.771 53.5967 469.771 52.7467C469.771 51.8967 469.941 51.1517 470.281 50.5117C470.631 49.8617 471.116 49.3617 471.736 49.0117C472.366 48.6617 473.086 48.4867 473.896 48.4867C474.676 48.4867 475.371 48.6567 475.981 48.9967C476.591 49.3367 477.066 49.8167 477.406 50.4367C477.746 51.0467 477.916 51.7517 477.916 52.5517ZM476.131 52.0117C476.121 51.3817 475.896 50.8767 475.456 50.4967C475.016 50.1167 474.471 49.9267 473.821 49.9267C473.231 49.9267 472.726 50.1167 472.306 50.4967C471.886 50.8667 471.636 51.3717 471.556 52.0117L476.131 52.0117ZM482.673 57.0217C482.023 57.0217 481.438 56.9067 480.918 56.6767C480.408 56.4367 480.003 56.1167 479.703 55.7167C479.403 55.3067 479.243 54.8517 479.223 54.3517L480.993 54.3517C481.023 54.7017 481.188 54.9967 481.488 55.2367C481.798 55.4667 482.183 55.5817 482.643 55.5817C483.123 55.5817 483.493 55.4917 483.753 55.3117C484.023 55.1217 484.158 54.8817 484.158 54.5917C484.158 54.2817 484.008 54.0517 483.708 53.9017C483.418 53.7517 482.953 53.5867 482.313 53.4067C481.693 53.2367 481.188 53.0717 480.798 52.9117C480.408 52.7517 480.068 52.5067 479.778 52.1767C479.498 51.8467 479.358 51.4117 479.358 50.8717C479.358 50.4317 479.488 50.0317 479.748 49.6717C480.008 49.3017 480.378 49.0117 480.858 48.8017C481.348 48.5917 481.908 48.4867 482.538 48.4867C483.478 48.4867 484.233 48.7267 484.803 49.2067C485.383 49.6767 485.693 50.3217 485.733 51.1417L484.023 51.1417C483.993 50.7717 483.843 50.4767 483.573 50.2567C483.303 50.0367 482.938 49.9267 482.478 49.9267C482.028 49.9267 481.683 50.0117 481.443 50.1817C481.203 50.3517 481.083 50.5767 481.083 50.8567C481.083 51.0767 481.163 51.2617 481.323 51.4117C481.483 51.5617 481.678 51.6817 481.908 51.7717C482.138 51.8517 482.478 51.9567 482.928 52.0867C483.528 52.2467 484.018 52.4117 484.398 52.5817C484.788 52.7417 485.123 52.9817 485.403 53.3017C485.683 53.6217 485.828 54.0467 485.838 54.5767C485.838 55.0467 485.708 55.4667 485.448 55.8367C485.188 56.2067 484.818 56.4967 484.338 56.7067C483.868 56.9167 483.313 57.0217 482.673 57.0217ZM489.756 50.0167L489.756 54.5917C489.756 54.9017 489.826 55.1267 489.966 55.2667C490.116 55.3967 490.366 55.4617 490.716 55.4617L491.766 55.4617L491.766 56.8867L490.416 56.8867C489.646 56.8867 489.056 56.7067 488.646 56.3467C488.236 55.9867 488.031 55.4017 488.031 54.5917L488.031 50.0167L487.056 50.0167L487.056 48.6217L488.031 48.6217L488.031 46.5667L489.756 46.5667L489.756 48.6217L491.766 48.6217L491.766 50.0167L489.756 50.0167ZM501.559 48.4867C502.209 48.4867 502.789 48.6217 503.299 48.8917C503.819 49.1617 504.224 49.5617 504.514 50.0917C504.804 50.6217 504.949 51.2617 504.949 52.0117L504.949 56.8867L503.254 56.8867L503.254 52.2667C503.254 51.5267 503.069 50.9617 502.699 50.5717C502.329 50.1717 501.824 49.9717 501.184 49.9717C500.544 49.9717 500.034 50.1717 499.654 50.5717C499.284 50.9617 499.099 51.5267 499.099 52.2667L499.099 56.8867L497.389 56.8867L497.389 48.6217L499.099 48.6217L499.099 49.5667C499.379 49.2267 499.734 48.9617 500.164 48.7717C500.604 48.5817 501.069 48.4867 501.559 48.4867ZM510.79 57.0217C510.01 57.0217 509.305 56.8467 508.675 56.4967C508.045 56.1367 507.55 55.6367 507.19 54.9967C506.83 54.3467 506.65 53.5967 506.65 52.7467C506.65 51.9067 506.835 51.1617 507.205 50.5117C507.575 49.8617 508.08 49.3617 508.72 49.0117C509.36 48.6617 510.075 48.4867 510.865 48.4867C511.655 48.4867 512.37 48.6617 513.01 49.0117C513.65 49.3617 514.155 49.8617 514.525 50.5117C514.895 51.1617 515.08 51.9067 515.08 52.7467C515.08 53.5867 514.89 54.3317 514.51 54.9817C514.13 55.6317 513.61 56.1367 512.95 56.4967C512.3 56.8467 511.58 57.0217 510.79 57.0217ZM510.79 55.5367C511.23 55.5367 511.64 55.4317 512.02 55.2217C512.41 55.0117 512.725 54.6967 512.965 54.2767C513.205 53.8567 513.325 53.3467 513.325 52.7467C513.325 52.1467 513.21 51.6417 512.98 51.2317C512.75 50.8117 512.445 50.4967 512.065 50.2867C511.685 50.0767 511.275 49.9717 510.835 49.9717C510.395 49.9717 509.985 50.0767 509.605 50.2867C509.235 50.4967 508.94 50.8117 508.72 51.2317C508.5 51.6417 508.39 52.1467 508.39 52.7467C508.39 53.6367 508.615 54.3267 509.065 54.8167C509.525 55.2967 510.1 55.5367 510.79 55.5367ZM527.945 48.6217L525.38 56.8867L523.58 56.8867L521.915 50.7817L520.25 56.8867L518.45 56.8867L515.87 48.6217L517.61 48.6217L519.335 55.2667L521.09 48.6217L522.875 48.6217L524.555 55.2367L526.265 48.6217L527.945 48.6217Z"/>
<path fill="#1D1D1D" d="M592.902 51.6517C592.902 50.6317 593.137 49.7167 593.607 48.9067C594.087 48.0967 594.732 47.4667 595.542 47.0167C596.362 46.5567 597.257 46.3267 598.227 46.3267C599.337 46.3267 600.322 46.6017 601.182 47.1517C602.052 47.6917 602.682 48.4617 603.072 49.4617L601.017 49.4617C600.747 48.9117 600.372 48.5017 599.892 48.2317C599.412 47.9617 598.857 47.8267 598.227 47.8267C597.537 47.8267 596.922 47.9817 596.382 48.2917C595.842 48.6017 595.417 49.0467 595.107 49.6267C594.807 50.2067 594.657 50.8817 594.657 51.6517C594.657 52.4217 594.807 53.0967 595.107 53.6767C595.417 54.2567 595.842 54.7067 596.382 55.0267C596.922 55.3367 597.537 55.4917 598.227 55.4917C598.857 55.4917 599.412 55.3567 599.892 55.0867C600.372 54.8167 600.747 54.4067 601.017 53.8567L603.072 53.8567C602.682 54.8567 602.052 55.6267 601.182 56.1667C600.322 56.7067 599.337 56.9767 598.227 56.9767C597.247 56.9767 596.352 56.7517 595.542 56.3017C594.732 55.8417 594.087 55.2067 593.607 54.3967C593.137 53.5867 592.902 52.6717 592.902 51.6517ZM608.734 57.0217C607.954 57.0217 607.249 56.8467 606.619 56.4967C605.989 56.1367 605.494 55.6367 605.134 54.9967C604.774 54.3467 604.594 53.5967 604.594 52.7467C604.594 51.9067 604.779 51.1617 605.149 50.5117C605.519 49.8617 606.024 49.3617 606.664 49.0117C607.304 48.6617 608.019 48.4867 608.809 48.4867C609.599 48.4867 610.314 48.6617 610.954 49.0117C611.594 49.3617 612.099 49.8617 612.469 50.5117C612.839 51.1617 613.024 51.9067 613.024 52.7467C613.024 53.5867 612.834 54.3317 612.454 54.9817C612.074 55.6317 611.554 56.1367 610.894 56.4967C610.244 56.8467 609.524 57.0217 608.734 57.0217ZM608.734 55.5367C609.174 55.5367 609.584 55.4317 609.964 55.2217C610.354 55.0117 610.669 54.6967 610.909 54.2767C611.149 53.8567 611.269 53.3467 611.269 52.7467C611.269 52.1467 611.154 51.6417 610.924 51.2317C610.694 50.8117 610.389 50.4967 610.009 50.2867C609.629 50.0767 609.219 49.9717 608.779 49.9717C608.339 49.9717 607.929 50.0767 607.549 50.2867C607.179 50.4967 606.884 50.8117 606.664 51.2317C606.444 51.6417 606.334 52.1467 606.334 52.7467C606.334 53.6367 606.559 54.3267 607.009 54.8167C607.469 55.2967 608.044 55.5367 608.734 55.5367ZM618.959 48.4867C619.609 48.4867 620.189 48.6217 620.699 48.8917C621.219 49.1617 621.624 49.5617 621.914 50.0917C622.204 50.6217 622.349 51.2617 622.349 52.0117L622.349 56.8867L620.654 56.8867L620.654 52.2667C620.654 51.5267 620.469 50.9617 620.099 50.5717C619.729 50.1717 619.224 49.9717 618.584 49.9717C617.944 49.9717 617.434 50.1717 617.054 50.5717C616.684 50.9617 616.499 51.5267 616.499 52.2667L616.499 56.8867L614.789 56.8867L614.789 48.6217L616.499 48.6217L616.499 49.5667C616.779 49.2267 617.134 48.9617 617.564 48.7717C618.004 48.5817 618.469 48.4867 618.959 48.4867ZM626.6 50.0167L626.6 54.5917C626.6 54.9017 626.67 55.1267 626.81 55.2667C626.96 55.3967 627.21 55.4617 627.56 55.4617L628.61 55.4617L628.61 56.8867L627.26 56.8867C626.49 56.8867 625.9 56.7067 625.49 56.3467C625.08 55.9867 624.875 55.4017 624.875 54.5917L624.875 50.0167L623.9 50.0167L623.9 48.6217L624.875 48.6217L624.875 46.5667L626.6 46.5667L626.6 48.6217L628.61 48.6217L628.61 50.0167L626.6 50.0167ZM629.691 52.7167C629.691 51.8867 629.861 51.1517 630.201 50.5117C630.551 49.8717 631.021 49.3767 631.611 49.0267C632.211 48.6667 632.871 48.4867 633.591 48.4867C634.241 48.4867 634.806 48.6167 635.286 48.8767C635.776 49.1267 636.166 49.4417 636.456 49.8217L636.456 48.6217L638.181 48.6217L638.181 56.8867L636.456 56.8867L636.456 55.6567C636.166 56.0467 635.771 56.3717 635.271 56.6317C634.771 56.8917 634.201 57.0217 633.561 57.0217C632.851 57.0217 632.201 56.8417 631.611 56.4817C631.021 56.1117 630.551 55.6017 630.201 54.9517C629.861 54.2917 629.691 53.5467 629.691 52.7167ZM636.456 52.7467C636.456 52.1767 636.336 51.6817 636.096 51.2617C635.866 50.8417 635.561 50.5217 635.181 50.3017C634.801 50.0817 634.391 49.9717 633.951 49.9717C633.511 49.9717 633.101 50.0817 632.721 50.3017C632.341 50.5117 632.031 50.8267 631.791 51.2467C631.561 51.6567 631.446 52.1467 631.446 52.7167C631.446 53.2867 631.561 53.7867 631.791 54.2167C632.031 54.6467 632.341 54.9767 632.721 55.2067C633.111 55.4267 633.521 55.5367 633.951 55.5367C634.391 55.5367 634.801 55.4267 635.181 55.2067C635.561 54.9867 635.866 54.6667 636.096 54.2467C636.336 53.8167 636.456 53.3167 636.456 52.7467ZM639.932 52.7467C639.932 51.8967 640.102 51.1517 640.442 50.5117C640.792 49.8617 641.272 49.3617 641.882 49.0117C642.492 48.6617 643.192 48.4867 643.982 48.4867C644.982 48.4867 645.807 48.7267 646.457 49.2067C647.117 49.6767 647.562 50.3517 647.792 51.2317L645.947 51.2317C645.797 50.8217 645.557 50.5017 645.227 50.2717C644.897 50.0417 644.482 49.9267 643.982 49.9267C643.282 49.9267 642.722 50.1767 642.302 50.6767C641.892 51.1667 641.687 51.8567 641.687 52.7467C641.687 53.6367 641.892 54.3317 642.302 54.8317C642.722 55.3317 643.282 55.5817 643.982 55.5817C644.972 55.5817 645.627 55.1467 645.947 54.2767L647.792 54.2767C647.552 55.1167 647.102 55.7867 646.442 56.2867C645.782 56.7767 644.962 57.0217 643.982 57.0217C643.192 57.0217 642.492 56.8467 641.882 56.4967C641.272 56.1367 640.792 55.6367 640.442 54.9967C640.102 54.3467 639.932 53.5967 639.932 52.7467ZM651.566 50.0167L651.566 54.5917C651.566 54.9017 651.636 55.1267 651.776 55.2667C651.926 55.3967 652.176 55.4617 652.526 55.4617L653.576 55.4617L653.576 56.8867L652.226 56.8867C651.456 56.8867 650.866 56.7067 650.456 56.3467C650.046 55.9867 649.841 55.4017 649.841 54.5917L649.841 50.0167L648.866 50.0167L648.866 48.6217L649.841 48.6217L649.841 46.5667L651.566 46.5667L651.566 48.6217L653.576 48.6217L653.576 50.0167L651.566 50.0167ZM666.684 48.6217L666.684 56.8867L664.974 56.8867L664.974 55.9117C664.704 56.2517 664.349 56.5217 663.909 56.7217C663.479 56.9117 663.019 57.0067 662.529 57.0067C661.879 57.0067 661.294 56.8717 660.774 56.6017C660.264 56.3317 659.859 55.9317 659.559 55.4017C659.269 54.8717 659.124 54.2317 659.124 53.4817L659.124 48.6217L660.819 48.6217L660.819 53.2267C660.819 53.9667 661.004 54.5367 661.374 54.9367C661.744 55.3267 662.249 55.5217 662.889 55.5217C663.529 55.5217 664.034 55.3267 664.404 54.9367C664.784 54.5367 664.974 53.9667 664.974 53.2267L664.974 48.6217L666.684 48.6217ZM672.015 57.0217C671.365 57.0217 670.78 56.9067 670.26 56.6767C669.75 56.4367 669.345 56.1167 669.045 55.7167C668.745 55.3067 668.585 54.8517 668.565 54.3517L670.335 54.3517C670.365 54.7017 670.53 54.9967 670.83 55.2367C671.14 55.4667 671.525 55.5817 671.985 55.5817C672.465 55.5817 672.835 55.4917 673.095 55.3117C673.365 55.1217 673.5 54.8817 673.5 54.5917C673.5 54.2817 673.35 54.0517 673.05 53.9017C672.76 53.7517 672.295 53.5867 671.655 53.4067C671.035 53.2367 670.53 53.0717 670.14 52.9117C669.75 52.7517 669.41 52.5067 669.12 52.1767C668.84 51.8467 668.7 51.4117 668.7 50.8717C668.7 50.4317 668.83 50.0317 669.09 49.6717C669.35 49.3017 669.72 49.0117 670.2 48.8017C670.69 48.5917 671.25 48.4867 671.88 48.4867C672.82 48.4867 673.575 48.7267 674.145 49.2067C674.725 49.6767 675.035 50.3217 675.075 51.1417L673.365 51.1417C673.335 50.7717 673.185 50.4767 672.915 50.2567C672.645 50.0367 672.28 49.9267 671.82 49.9267C671.37 49.9267 671.025 50.0117 670.785 50.1817C670.545 50.3517 670.425 50.5767 670.425 50.8567C670.425 51.0767 670.505 51.2617 670.665 51.4117C670.825 51.5617 671.02 51.6817 671.25 51.7717C671.48 51.8517 671.82 51.9567 672.27 52.0867C672.87 52.2467 673.36 52.4117 673.74 52.5817C674.13 52.7417 674.465 52.9817 674.745 53.3017C675.025 53.6217 675.17 54.0467 675.18 54.5767C675.18 55.0467 675.05 55.4667 674.79 55.8367C674.53 56.2067 674.16 56.4967 673.68 56.7067C673.21 56.9167 672.655 57.0217 672.015 57.0217Z"/>
</g>
<defs>
<filter color-interpolation-filters="sRGB" filterUnits="userSpaceOnUse" height="287.973" width="869.25" y="-10.5" x="0.375" id="filter0_dddd_339_56212">
<feFlood result="BackgroundImageFix" flood-opacity="0"/>
<feColorMatrix result="hardAlpha" values="0 0 0 0 0 0 0 0 0 0 0 0 0 0 0 0 0 0 127 0" type="matrix" in="SourceAlpha"/>
<feOffset dy="9"/>
<feGaussianBlur stdDeviation="9.75"/>
<feColorMatrix values="0 0 0 0 0 0 0 0 0 0 0 0 0 0 0 0 0 0 0.1 0" type="matrix"/>
<feBlend result="effect1_dropShadow_339_56212" in2="BackgroundImageFix" mode="normal"/>
<feColorMatrix result="hardAlpha" values="0 0 0 0 0 0 0 0 0 0 0 0 0 0 0 0 0 0 127 0" type="matrix" in="SourceAlpha"/>
<feOffset dy="35.25"/>
<feGaussianBlur stdDeviation="17.625"/>
<feColorMatrix values="0 0 0 0 0 0 0 0 0 0 0 0 0 0 0 0 0 0 0.09 0" type="matrix"/>
<feBlend result="effect2_dropShadow_339_56212" in2="effect1_dropShadow_339_56212" mode="normal"/>
<feColorMatrix result="hardAlpha" values="0 0 0 0 0 0 0 0 0 0 0 0 0 0 0 0 0 0 127 0" type="matrix" in="SourceAlpha"/>
<feOffset dy="78.75"/>
<feGaussianBlur stdDeviation="23.625"/>
<feColorMatrix values="0 0 0 0 0 0 0 0 0 0 0 0 0 0 0 0 0 0 0.05 0" type="matrix"/>
<feBlend result="effect3_dropShadow_339_56212" in2="effect2_dropShadow_339_56212" mode="normal"/>
<feColorMatrix result="hardAlpha" values="0 0 0 0 0 0 0 0 0 0 0 0 0 0 0 0 0 0 127 0" type="matrix" in="SourceAlpha"/>
<feOffset dy="140.25"/>
<feGaussianBlur stdDeviation="28.125"/>
<feColorMatrix values="0 0 0 0 0 0 0 0 0 0 0 0 0 0 0 0 0 0 0.01 0" type="matrix"/>
<feBlend result="effect4_dropShadow_339_56212" in2="effect3_dropShadow_339_56212" mode="normal"/>
<feBlend result="shape" in2="effect4_dropShadow_339_56212" in="SourceGraphic" mode="normal"/>
</filter>
</defs>
</svg>