<svg width="31" height="30" viewBox="0 0 31 30" fill="none" xmlns="http://www.w3.org/2000/svg">
<path d="M28.0677 11.518L25.6263 10.2973C25.1747 10.0776 24.6132 10.2485 24.3934 10.7001C24.1615 11.164 24.3446 11.7133 24.7963 11.933L26.7372 12.8973V18.7445L22.1596 18.7567V6.23238C22.1596 3.791 20.5238 2.57031 18.4975 2.57031H8.73198C6.70564 2.57031 5.06992 3.791 5.06992 6.23238V26.0686H3.23888C2.7384 26.0686 2.32336 26.4836 2.32336 26.9841C2.32336 27.4846 2.7384 27.8996 3.23888 27.8996H23.9906C24.4911 27.8996 24.9061 27.4846 24.9061 26.9841C24.9061 26.4836 24.4911 26.0686 23.9906 26.0686H22.1596V20.5877L27.6527 20.5755C28.1654 20.5755 28.5682 20.1605 28.5682 19.66V12.3358C28.5682 11.994 28.3729 11.6767 28.0677 11.518ZM8.12164 8.53948C8.12164 6.84273 9.15923 6.23238 10.4287 6.23238H16.813C18.0703 6.23238 19.1078 6.84273 19.1078 8.53948V10.0409C19.1078 11.7255 18.0703 12.3358 16.8007 12.3358H10.4287C9.15923 12.3358 8.12164 11.7255 8.12164 10.0287V8.53948ZM8.73198 15.0824H12.3941C12.8945 15.0824 13.3096 15.4974 13.3096 15.9979C13.3096 16.4984 12.8945 16.9134 12.3941 16.9134H8.73198C8.2315 16.9134 7.81647 16.4984 7.81647 15.9979C7.81647 15.4974 8.2315 15.0824 8.73198 15.0824Z" fill="#90A3BF"/>
</svg>
