<svg width="63" height="64" viewBox="0 0 63 64" fill="none" xmlns="http://www.w3.org/2000/svg">
<path d="M59.7001 29.3487H3.45574C1.58093 29.3487 0.331055 30.5986 0.331055 32.4734C0.331055 34.3482 1.58093 35.5981 3.45574 35.5981H59.7001C61.5749 35.5981 62.8247 34.3482 62.8247 32.4734C62.8247 30.5986 61.5749 29.3487 59.7001 29.3487ZM47.2013 41.8474H15.9545C15.0171 41.8474 14.3921 42.1599 13.7672 42.7848C12.5173 44.0347 12.5173 45.9095 13.7672 47.1594L29.3906 62.7828C30.0156 63.4077 30.6405 63.7202 31.5779 63.7202C32.5153 63.7202 33.1402 63.4077 33.7652 62.7828L49.3886 47.1594C50.0135 46.5345 50.326 45.9095 50.326 44.9721C50.326 43.0973 49.0761 41.8474 47.2013 41.8474ZM42.2018 19.9746C42.2018 21.8494 43.4517 23.0993 45.3265 23.0993H47.2013C48.1387 23.0993 48.7637 22.7868 49.3886 22.1619C50.6385 20.912 50.6385 19.0372 49.3886 17.7874L47.2013 15.6001C46.2639 14.6627 44.7016 14.3502 43.4517 14.9751C41.8894 15.6001 41.2644 17.4749 42.2018 19.0372C42.2018 19.6622 42.2018 19.6622 42.2018 19.9746ZM30.328 9.97565L31.5779 8.72577L34.0776 11.2255C34.7026 11.8505 35.3275 12.1629 36.2649 12.1629C37.2023 12.1629 37.8273 11.8505 38.4522 11.2255C39.7021 9.97565 39.7021 8.10084 38.4522 6.85096L35.0151 3.41381C34.7026 3.10134 34.3901 3.10134 34.0776 2.78887C34.0776 2.4764 33.7652 2.16394 33.4527 1.85147C32.2028 0.601594 30.328 0.601594 29.0781 1.85147L25.641 5.28862C24.3911 6.53849 24.3911 8.4133 25.641 9.66318C26.8909 10.9131 29.3906 11.2255 30.328 9.97565ZM16.2669 23.0993C17.2043 23.0993 17.8293 22.7868 18.4542 22.1619L21.8914 18.7248C23.1412 17.4749 23.1412 15.6001 21.8914 14.3502C20.6415 13.1003 18.7667 13.1003 17.5168 14.3502L13.7672 17.4749C13.4547 18.0998 13.1423 19.0372 13.1423 19.6622C13.1423 21.537 14.3921 22.7868 16.2669 23.0993ZM28.1407 23.0993H32.8278C34.7026 23.0993 35.9525 21.8494 35.9525 19.9746C35.9525 18.0998 34.7026 16.85 32.8278 16.85H28.1407C26.2659 16.85 25.0161 18.0998 25.0161 19.9746C25.0161 21.8494 26.5784 23.0993 28.1407 23.0993Z" fill="#03B74B"/>
</svg>
