<?xml version="1.0" encoding="utf-8"?>
<!-- Generator: Adobe Illustrator 23.0.1, SVG Export Plug-In . SVG Version: 6.00 Build 0)  -->
<svg version="1.1" id="Layer_1" xmlns="http://www.w3.org/2000/svg" xmlns:xlink="http://www.w3.org/1999/xlink" x="0px" y="0px"
	 viewBox="0 0 268 36" style="enable-background:new 0 0 268 36;" xml:space="preserve">
<style type="text/css">
	.st0{fill:#02B74B;}
	.st1{enable-background:new    ;}
	.st2{fill:#FFFFFF;}
	.st3{fill-rule:evenodd;clip-rule:evenodd;fill:#02B74B;}
</style>
<g>
	<g id="Layer_1-2_1_">
		<rect x="177.2" y="1.5" class="st0" width="78.8" height="34"/>
		<path d="M36.4,8.3H3.1v-7h38.3L36.4,8.3z M12.7,35.3H3.1V14.8h33.5l-5,7H12.7V35.3z"/>
		<path d="M54.4,1.3v17c0,13,19.1,13,19.1,0v-17h9.6v17c0,9.3-7.6,16.9-16.9,17h-4.4c-9.4,0-16.9-7.6-17-17v-17H54.4z"/>
		<path d="M102.7,14.8h20.1l-5,7H98.9v6.5h23.7l5,7H90.5L102.7,14.8z M101.5,1.3h26.1l-5,7H98.3L101.5,1.3z"/>
		<path d="M141.3,1.3v17c0,5.5,4.5,9.9,10,10H170v7h-21.3c-9.3,0-16.9-7.6-16.9-17v-17H141.3z"/>
		<g class="st1">
			<path class="st2" d="M195.3,25.4h16.6l3.5,4.9h-26.8V15.9H212l-3.5,4.9h-13.2V25.4z M211.8,11.4h-23.3V6.5h26.8L211.8,11.4z"/>
			<path class="st2" d="M228.7,24.4L216.4,6.5h8.1l8.2,11.9L241,6.5h8.1l-12.3,17.8l-4.1,5.9L228.7,24.4z"/>
		</g>
		<polygon class="st3" points="93.1,1.5 100.3,1.5 95.6,11.7 101.7,14.6 89.3,35.1 92.5,19.2 87.2,17.1 92.5,1.5 		"/>
	</g>
</g>
</svg>
